P3
5 6
255
63 63 127 85 85 170 127 127 85 85 85 170 63 63 127
85 85 170 85 85 170 141 141 113 85 85 170 85 85 170
42 42 170 85 85 170 0 0 0 85 85 170 42 42 170
85 85 212 85 85 170 255 255 255 85 85 170 85 85 212
85 85 170 85 85 170 141 141 113 85 85 170 85 85 170
127 127 191 85 85 170 170 170 127 85 85 170 127 127 191
