P3
5 6
255
0 0 255 255 255 0 0 0 255 255 255 0 0 0 255
0 0 255 0 0 0 255 255 255 0 0 0 0 0 255
0 0 255 255 255 255 0 0 0 255 255 255 0 0 255
0 0 255 0 0 0 255 255 255 0 0 0 0 0 255
0 0 255 255 255 255 0 0 0 255 255 255 0 0 255
0 0 255 255 255 0 0 0 255 255 255 0 0 0 255
