P3
5 6
255
85 85 170 106 106 148 85 85 170 106 106 148 85 85 170
85 85 170 95 95 143 76 76 165 95 95 143 85 85 170
85 85 170 102 102 153 81 81 173 102 102 153 85 85 170
85 85 170 102 102 153 81 81 173 102 102 153 85 85 170
85 85 170 111 111 159 89 89 178 111 111 159 85 85 170
85 85 170 106 106 148 85 85 170 106 106 148 85 85 170
