P3
5 6
255
28 170 28 42 170 21 34 187 17 42 170 21 28 170 28
21 148 42 31 143 31 25 165 25 31 143 31 21 148 42
34 153 34 51 153 25 40 173 20 51 153 25 34 153 34
34 153 34 51 153 25 40 173 20 51 153 25 34 153 34
42 170 21 63 175 15 51 191 12 63 175 15 42 170 21
28 170 28 42 170 21 34 187 17 42 170 21 28 170 28
