P3
5 6
255
0 255 0 0 170 42 0 127 42 0 170 42 0 255 0
42 212 0 28 170 28 56 141 28 28 170 28 42 212 0
42 170 0 28 113 56 56 56 56 28 113 56 42 170 0
85 212 0 56 141 28 113 113 28 56 141 28 85 212 0
42 212 0 28 170 28 56 141 28 28 170 28 42 212 0
63 255 0 42 212 0 85 212 0 42 212 0 63 255 0
